# xmcd
#
# Track frame offsets:
#	150
#	12630
#	24639
#	39001
#	51896
#	64058
#	74578
#	88786
#	99323
#	113554
#	128656
#	139822
#	153588
#	166990
#	176608
#	190742
#	205630
#	214458
#	225290
#	237395
#	248559
#	259871
#	268726
#	278274
#
# Disc length: 3880 seconds
# Revision: 0
# Processed by: cddbd v1.5.2PL0 Copyright (c) Steve Scherf et al.
# Submitted via: dBpowerAMP V12.0
#
DISCID=4a0f2618
DTITLE=Various Artist - Blue Beat - The Singles - Vol 2 Disc 4
DYEAR=2013
DGENRE=R&B
TTITLE0=Derrick Morgan and Buster's Group - Come On Over
TTITLE1=Derrick Morgan and Buster's Group - Come Back My Darling
TTITLE2=Errol Dixon And His Back Beats - Bad Bad Woman
TTITLE3=Errol Dixon And His Back Beats - Early This Morning
TTITLE4=Theo Beckford - Walking Down King Street
TTITLE5=Theo Beckford WIth Dee's Group - The Clock
TTITLE6=Lloyd Flowers With Reco's Rhythm Group - I'm Going Home
TTITLE7=Lloyd Flowers With Reco's Rhythm Group - Lovers Town
TTITLE8=The Echoes Celestials - Are You Mine
TTITLE9=The Echoes Celestials - I Love You Forever
TTITLE10=Rupert Edwards - Guilty Convict
TTITLE11=Rupert Edwards - Just Because
TTITLE12=Owen Grey and Busters Group - Millie Girl
TTITLE13=Owen Grey and Busters Group - Headache
TTITLE14=Clive Bailey Recho's Blues Group - Evening Train
TTITLE15=Clive Bailey Recho's Blues Group - Take Me Home
TTITLE16=Bobby Aitken and Busters Group - Never, Never
TTITLE17=Derrick Morgan and Busters Group - Isabella
TTITLE18=Derrick Morgan and Yvonne - Meekly Wait
TTITLE19=Derrick Morgan and Yvonne - Day In And Day Out
TTITLE20=Higgs And Wilson - How Can I Be Sure
TTITLE21=Higgs And Wilson - Mighty Man
TTITLE22=Owen And Millie With The City Slickers Orchestra - Sit And Cry
TTITLE23=Owen And Millie With The City Slickers Orchestra - Do You Know
EXTD=
EXTT0=
EXTT1=
EXTT2=
EXTT3=
EXTT4=
EXTT5=
EXTT6=
EXTT7=
EXTT8=
EXTT9=
EXTT10=
EXTT11=
EXTT12=
EXTT13=
EXTT14=
EXTT15=
EXTT16=
EXTT17=
EXTT18=
EXTT19=
EXTT20=
EXTT21=
EXTT22=
EXTT23=
PLAYORDER=
